<svg width="200" height="72" viewBox="0 0 200 72" fill="none" xmlns="http://www.w3.org/2000/svg">
<g opacity="0.3">
<rect width="200" height="72" fill="#17181D"/>
<path d="M69.233 44.229C69.384 46.0314 68.7741 47.886 67.4011 49.2711C66.0281 50.6561 64.179 51.2822 62.3755 51.1474C62.2246 49.345 62.8344 47.4903 64.2074 46.1053C65.5804 44.7202 67.4296 44.094 69.233 44.229Z" fill="white"/>
<path d="M65.9665 41.7246C64.1666 43.6494 61.5664 44.8033 58.7275 44.6736C55.889 44.544 53.405 43.1581 51.7881 41.0777C53.588 39.1529 56.1882 37.999 59.027 38.1286C61.8656 38.2583 64.3495 39.6441 65.9665 41.7246Z" fill="white"/>
<path d="M50.73 35.5301C51.106 31.0229 53.3799 26.7025 57.3407 23.8567C61.3015 21.0109 66.1214 20.2343 70.5128 21.3158C70.1369 25.8229 67.8628 30.1433 63.902 32.9891C59.9413 35.8349 55.1213 36.6116 50.73 35.5301Z" fill="white"/>
<path d="M123.742 30.003V32.7476H125.388V47.0962H128.316V32.7476H132.158V30.003H128.316V27.1946C128.316 26.3895 128.389 25.743 128.536 25.2551C128.682 24.7672 128.877 24.4256 129.121 24.2304C129.389 24.0109 129.707 23.9011 130.073 23.9011C130.365 23.9011 130.67 23.9621 130.987 24.084C131.329 24.1817 131.621 24.4378 131.865 24.8525L133.476 22.4374C133.305 22.1934 133.061 21.9616 132.744 21.7421C132.451 21.5225 132.097 21.3395 131.683 21.1931C131.268 21.0467 130.792 20.9736 130.255 20.9736C129.231 20.9736 128.352 21.1931 127.62 21.6322C126.913 22.047 126.364 22.6812 125.974 23.5351C125.583 24.389 125.388 25.4868 125.388 26.8286V30.003H123.742Z" fill="white"/>
<path d="M77.769 24.4076V47.0961H90.943V44.1684H80.8796V24.4076H77.769Z" fill="white"/>
<path fill-rule="evenodd" clip-rule="evenodd" d="M98.7442 47.4621C100.55 47.4621 102.111 47.1083 103.428 46.4008C104.77 45.6688 105.88 44.5954 106.758 43.1804L104.38 41.68C103.77 42.7047 103.026 43.4732 102.148 43.9855C101.269 44.4734 100.257 44.7174 99.1101 44.7174C97.9635 44.7174 96.9878 44.4734 96.1827 43.9855C95.3776 43.4976 94.7676 42.7901 94.3528 41.863C94.0379 41.1585 93.8422 40.3413 93.7667 39.4112H107.015V39.0818C107.039 38.8867 107.051 38.7037 107.051 38.533C107.051 36.752 106.734 35.2151 106.1 33.9221C105.465 32.629 104.551 31.641 103.355 30.9579C102.184 30.2505 100.769 29.8967 99.1101 29.8967C97.4512 29.8967 95.9873 30.2626 94.7188 30.9945C93.4747 31.7264 92.499 32.7511 91.7914 34.0685C91.1082 35.3859 90.7666 36.9228 90.7666 38.6793C90.7666 40.4115 91.096 41.9362 91.7548 43.2536C92.4377 44.571 93.3772 45.6079 94.5726 46.3642C95.7924 47.0961 97.1828 47.4621 98.7442 47.4621ZM94.3894 35.2395C94.1556 35.7347 93.9838 36.2958 93.8741 36.9228H103.851C103.795 36.1211 103.593 35.4137 103.245 34.8004C102.855 34.0685 102.306 33.4952 101.598 33.0804C100.891 32.6657 100.061 32.4583 99.1101 32.4583C97.9878 32.4583 97.0243 32.7023 96.2193 33.1902C95.4386 33.6537 94.8285 34.3369 94.3894 35.2395Z" fill="white"/>
<path fill-rule="evenodd" clip-rule="evenodd" d="M118.968 37.8668C118.508 37.565 117.922 37.2992 117.212 37.0692C116.407 36.7764 115.394 36.63 114.174 36.63C112.101 36.63 110.478 37.1302 109.307 38.1304C108.161 39.1062 107.587 40.4115 107.587 42.046C107.587 43.1926 107.856 44.1685 108.392 44.9735C108.929 45.7785 109.637 46.4008 110.515 46.8398C111.417 47.2546 112.381 47.4621 113.406 47.4621C114.333 47.4621 115.26 47.2911 116.187 46.9495C117.139 46.6079 117.931 46.0835 118.565 45.3761C118.717 45.2132 118.851 45.0406 118.968 44.8584V47.0961H121.895V35.0199C121.895 33.9221 121.615 32.9951 121.054 32.2388C120.517 31.4825 119.749 30.9092 118.749 30.5189C117.773 30.1041 116.626 29.8967 115.309 29.8967C113.747 29.8967 112.406 30.1285 111.283 30.592C110.185 31.0555 109.319 31.519 108.685 31.9826L110.112 34.1416C110.38 33.9465 110.747 33.7147 111.21 33.4463C111.674 33.178 112.235 32.9462 112.893 32.7511C113.577 32.5559 114.333 32.4583 115.162 32.4583C115.675 32.4583 116.162 32.5071 116.626 32.6047C117.089 32.7023 117.492 32.8608 117.834 33.0804C118.2 33.2999 118.48 33.605 118.675 33.9952C118.871 34.3612 118.968 34.837 118.968 35.4225V37.8668ZM110.99 40.3261C110.698 40.7652 110.551 41.2898 110.551 41.8997C110.551 42.5339 110.698 43.0828 110.99 43.5463C111.308 44.0099 111.735 44.3636 112.271 44.6076C112.833 44.8271 113.467 44.937 114.174 44.937C115.077 44.937 115.882 44.754 116.589 44.388C117.321 44.0221 117.894 43.5097 118.309 42.8511C118.749 42.1679 118.968 41.3873 118.968 40.509V39.8759C118.499 39.6478 118.024 39.4685 117.541 39.338C116.638 39.0697 115.675 38.9355 114.65 38.9355C113.699 38.9355 112.918 39.0575 112.308 39.3015C111.722 39.5453 111.283 39.887 110.99 40.3261Z" fill="white"/>
<path fill-rule="evenodd" clip-rule="evenodd" d="M144.861 46.4008C143.544 47.1083 141.982 47.4621 140.177 47.4621C138.616 47.4621 137.225 47.0961 136.005 46.3642C134.81 45.6079 133.871 44.571 133.188 43.2536C132.529 41.9362 132.2 40.4115 132.2 38.6793C132.2 36.9228 132.541 35.3859 133.224 34.0685C133.932 32.7511 134.907 31.7264 136.152 30.9945C137.42 30.2626 138.884 29.8967 140.543 29.8967C142.202 29.8967 143.617 30.2505 144.788 30.9579C145.983 31.641 146.898 32.629 147.533 33.9221C148.167 35.2151 148.484 36.752 148.484 38.533C148.484 38.7037 148.472 38.8867 148.447 39.0818V39.4112H135.199C135.275 40.3413 135.471 41.1585 135.786 41.863C136.201 42.7901 136.81 43.4976 137.615 43.9855C138.42 44.4734 139.397 44.7174 140.543 44.7174C141.69 44.7174 142.702 44.4734 143.58 43.9855C144.459 43.4732 145.203 42.7047 145.813 41.68L148.191 43.1804C147.313 44.5954 146.203 45.6688 144.861 46.4008ZM135.307 36.9228C135.417 36.2958 135.589 35.7347 135.823 35.2395C136.262 34.3369 136.871 33.6537 137.652 33.1902C138.457 32.7023 139.421 32.4583 140.543 32.4583C141.495 32.4583 142.324 32.6657 143.032 33.0804C143.739 33.4952 144.288 34.0685 144.678 34.8004C145.026 35.4137 145.228 36.1211 145.284 36.9228H135.307Z" fill="white"/>
</g>
</svg>
