<?xml version="1.0" encoding="utf-8"?>
<!-- Generator: Adobe Illustrator 24.2.1, SVG Export Plug-In . SVG Version: 6.00 Build 0)  -->
<!DOCTYPE svg PUBLIC "-//W3C//DTD SVG 1.1//EN" "http://www.w3.org/Graphics/SVG/1.1/DTD/svg11.dtd" [
	<!ENTITY ns_extend "http://ns.adobe.com/Extensibility/1.0/">
	<!ENTITY ns_ai "http://ns.adobe.com/AdobeIllustrator/10.0/">
	<!ENTITY ns_graphs "http://ns.adobe.com/Graphs/1.0/">
	<!ENTITY ns_vars "http://ns.adobe.com/Variables/1.0/">
	<!ENTITY ns_imrep "http://ns.adobe.com/ImageReplacement/1.0/">
	<!ENTITY ns_sfw "http://ns.adobe.com/SaveForWeb/1.0/">
	<!ENTITY ns_custom "http://ns.adobe.com/GenericCustomNamespace/1.0/">
	<!ENTITY ns_adobe_xpath "http://ns.adobe.com/XPath/1.0/">
]>
<svg version="1.1" id="Layer_1" xmlns:x="&ns_extend;" xmlns:i="&ns_ai;" xmlns:graph="&ns_graphs;"
	 xmlns="http://www.w3.org/2000/svg" xmlns:xlink="http://www.w3.org/1999/xlink" x="0px" y="0px" viewBox="0 0 36 36"
	 style="enable-background:new 0 0 36 36;" xml:space="preserve">
<style type="text/css">
	.st0{fill:#FFFFFF;}
	.st1{fill:#FFFFFF;fill-opacity:0;}
</style>
<metadata>
	<sfw  xmlns="&ns_sfw;">
		<slices></slices>
		<sliceSourceBounds  bottomLeftOrigin="true" height="36" width="36" x="0" y="0"></sliceSourceBounds>
	</sfw>
</metadata>
<polygon class="st0" points="9,17.4 9,27 18.6,27 16.6,25 11,25 11,19.4 "/>
<path class="st0" d="M34.9,32.3L32,29.4V32H4v-4.1h2v-1.6H4v-6.6h2V18H4v-6.4h2V10H4V4.4l15.9,15.9v-2.8L3.7,1.3
	c-0.4-0.4-1-0.4-1.4,0C2.1,1.5,2,1.7,2,2v31c0,0.6,0.4,1,1,1h31.2c0.6,0,1-0.4,1-1C35.2,32.7,35.1,32.5,34.9,32.3z"/>
<path class="st0" d="M24,30h4c1.1,0,2-0.9,2-2V8.7l-2.3-4.2c-0.4-0.6-1-1-1.8-1l0,0c-0.7,0-1.4,0.4-1.8,1.1L22,8.7V28
	C22,29.1,22.9,30,24,30z M24,9.2l1.9-3.8L28,9.2V24h-4V9.2z M24,25.6h4v2.4h-4V25.6z"/>
<rect class="st1" width="36" height="36"/>
</svg>
