<svg width="210" height="36" viewBox="0 0 210 36" fill="none" xmlns="http://www.w3.org/2000/svg">
<path d="M34.1378 36H2.84482C1.25172 36 0 34.7815 0 33.2308V2.76923C0 1.21846 1.25172 0 2.84482 0H34.1378C35.7309 0 36.9827 1.21846 36.9827 2.76923V33.2308C36.9827 34.7815 35.7309 36 34.1378 36Z" fill="url(#paint0_linear_383_442)"/>
<path d="M17.7516 30.5724H10.6965L22.9292 12.7385H6.99823V7.75391H30.3826V11.9631L17.7516 30.5724Z" fill="white"/>
<path d="M73.9653 15.5631C73.9653 16.7262 73.7946 17.7785 73.4533 18.7201C73.1119 19.6616 72.5429 20.4924 71.8033 21.2124C71.0636 21.877 70.0395 22.4308 68.8447 22.8185C67.6498 23.2062 66.1705 23.3724 64.4636 23.3724H53.9947V30.5724H47.6792V7.75391H64.5205C66.2274 7.75391 67.7067 7.92006 68.9015 8.30775C70.0964 8.69544 71.0636 9.24929 71.8602 9.91391C72.5998 10.5785 73.1688 11.4093 73.5102 12.4062C73.7946 13.3478 73.9653 14.4001 73.9653 15.5631ZM67.5929 15.6185C67.5929 15.0647 67.536 14.6216 67.3653 14.2339C67.1947 13.8462 66.9671 13.5139 66.6257 13.2924C66.2843 13.0708 65.8291 12.8493 65.2602 12.7385C64.6912 12.6278 64.0085 12.5724 63.155 12.5724H53.9947V18.4431H63.155C64.0085 18.4431 64.6912 18.3878 65.2602 18.277C65.8291 18.1662 66.2843 18.0001 66.6257 17.7785C66.9671 17.557 67.2516 17.2801 67.3653 16.8924C67.536 16.6154 67.5929 16.1724 67.5929 15.6185Z" fill="white"/>
<path d="M79.1998 30.5724V7.75391H85.5153V30.5724H79.1998Z" fill="white"/>
<path d="M108.388 18.8862L119.482 30.5724H111.915L104.576 22.8739L97.2928 30.5724H89.7256L100.82 18.8862L90.2377 7.75391H97.8618L104.576 14.8985L111.346 7.75391H118.913L108.388 18.8862Z" fill="white"/>
<path d="M149.581 29.4645C147.646 30.0738 145.769 30.5168 143.834 30.7938C141.9 31.0707 139.965 31.1815 137.974 31.1815C135.413 31.1815 133.138 30.9045 131.146 30.3507C129.155 29.7968 127.448 29.0215 126.082 28.0245C124.717 27.0276 123.693 25.7538 122.953 24.3138C122.213 22.8184 121.872 21.1568 121.872 19.3291C121.872 17.6122 122.213 16.0061 122.953 14.5107C123.693 13.0153 124.717 11.7415 126.026 10.6338C127.334 9.52607 128.927 8.6953 130.805 8.08607C132.682 7.47684 134.788 7.14453 137.063 7.14453C139.169 7.14453 141.16 7.42145 142.924 7.9753C144.688 8.52915 146.224 9.35992 147.475 10.4676C148.727 11.5753 149.751 12.9045 150.434 14.5107C151.117 16.1168 151.458 17.9445 151.458 20.0491V21.5999H128.358C128.586 22.3199 128.927 22.9845 129.382 23.5938C129.838 24.203 130.52 24.7015 131.317 25.1445C132.113 25.5876 133.138 25.8645 134.275 26.1415C135.47 26.363 136.836 26.4738 138.486 26.4738C139.624 26.4738 140.762 26.4184 141.9 26.2522C143.038 26.1415 144.062 25.9199 145.029 25.6984C145.996 25.4768 146.85 25.1999 147.646 24.923C148.443 24.6461 149.069 24.3691 149.524 24.0922V29.4645H149.581ZM145.256 17.1138C145.2 16.5599 145.029 15.9507 144.744 15.3415C144.46 14.7322 144.005 14.1784 143.379 13.6799C142.753 13.1815 141.956 12.7938 140.932 12.4615C139.908 12.1291 138.657 11.963 137.12 11.963C135.698 11.963 134.446 12.1291 133.422 12.4615C132.398 12.7938 131.544 13.2368 130.805 13.7353C130.065 14.2338 129.553 14.7876 129.155 15.3968C128.757 16.0061 128.529 16.5045 128.415 17.003H145.256V17.1138Z" fill="white"/>
<path d="M163.577 20.8247C163.577 21.7662 163.691 22.5416 163.862 23.1508C164.032 23.7601 164.317 24.2585 164.772 24.5908C165.227 24.9231 165.739 25.2001 166.365 25.3108C166.991 25.4216 167.844 25.5324 168.755 25.5324H180.76V30.5724H167.446C165.625 30.5724 164.032 30.4062 162.724 30.1293C161.415 29.8524 160.391 29.4093 159.537 28.7447C158.741 28.1354 158.115 27.3601 157.774 26.4185C157.432 25.477 157.205 24.3693 157.205 23.0401V7.75391H163.52V20.8247H163.577Z" fill="white"/>
<path d="M207.444 14.1784C206.989 13.9568 206.42 13.7353 205.68 13.4584C204.941 13.1815 204.144 12.9599 203.234 12.683C202.324 12.4615 201.299 12.2399 200.218 12.0738C199.137 11.9076 198.056 11.8522 196.918 11.8522C196.008 11.8522 195.211 11.8522 194.586 11.9076C193.96 11.963 193.391 12.0184 192.993 12.1291C192.537 12.2399 192.196 12.2953 191.968 12.4615C191.741 12.5722 191.513 12.683 191.399 12.7938C191.286 12.9045 191.172 13.0153 191.115 13.1815C191.058 13.2922 191.058 13.403 191.058 13.5138C191.058 13.8461 191.229 14.123 191.57 14.3999C191.911 14.6768 192.367 14.843 192.993 15.0645C193.561 15.2307 194.244 15.4522 195.041 15.6184C195.837 15.7845 196.634 15.9507 197.544 16.1722C198.398 16.3384 199.308 16.5599 200.275 16.7815C201.186 17.003 202.096 17.2245 203.006 17.5568C203.86 17.8338 204.713 18.1661 205.51 18.5538C206.306 18.9415 206.989 19.3845 207.558 19.883C208.127 20.3815 208.639 20.9907 208.98 21.6553C209.322 22.3199 209.492 23.0953 209.492 23.9261C209.492 25.0338 209.322 25.9753 208.924 26.7507C208.525 27.5261 208.013 28.1907 207.33 28.7445C206.648 29.2984 205.908 29.7415 204.998 30.0738C204.144 30.4061 203.177 30.6276 202.267 30.8491C201.356 31.0707 200.332 31.1261 199.365 31.1815C198.398 31.2368 197.43 31.2368 196.577 31.2368C194.244 31.2368 192.139 31.0707 190.148 30.683C188.156 30.2953 186.449 29.8522 184.913 29.2984V23.8153C186.449 24.6461 188.27 25.3107 190.261 25.8091C192.253 26.3076 194.415 26.5291 196.691 26.5291C198.056 26.5291 199.137 26.4738 199.991 26.3076C200.844 26.1968 201.527 25.9753 201.982 25.7538C202.437 25.5322 202.779 25.3107 202.949 25.0338C203.12 24.7568 203.177 24.5353 203.177 24.3138C203.177 23.9261 203.006 23.6491 202.665 23.3722C202.324 23.0953 201.868 22.8738 201.243 22.6522C200.674 22.4307 199.991 22.2645 199.194 22.0984C198.398 21.9322 197.601 21.7661 196.691 21.5999C195.837 21.4338 194.927 21.2676 193.96 21.0461C193.049 20.8245 192.139 20.603 191.229 20.3261C190.375 20.0491 189.522 19.7168 188.725 19.3845C187.929 19.0522 187.246 18.6091 186.677 18.1107C186.108 17.6122 185.596 17.0584 185.255 16.3938C184.913 15.7291 184.743 15.0091 184.743 14.123C184.743 13.1261 184.913 12.2399 185.312 11.5199C185.653 10.7999 186.165 10.1907 186.791 9.63684C187.417 9.13838 188.099 8.6953 188.953 8.36299C189.749 8.03069 190.603 7.80915 191.513 7.64299C192.424 7.47684 193.334 7.36607 194.244 7.2553C195.155 7.19992 196.065 7.14453 196.861 7.14453C197.772 7.14453 198.682 7.19992 199.649 7.2553C200.617 7.36607 201.584 7.47684 202.494 7.64299C203.405 7.80915 204.315 7.9753 205.225 8.19684C206.136 8.41838 206.875 8.63992 207.615 8.86145V14.1784H207.444Z" fill="white"/>
<defs>
<linearGradient id="paint0_linear_383_442" x1="-1.25902e-06" y1="36.5294" x2="34.1193" y2="0.160967" gradientUnits="userSpaceOnUse">
<stop stop-color="#FFBF00"/>
<stop offset="0.5112" stop-color="#FF63A5"/>
<stop offset="1" stop-color="#8B00FF"/>
</linearGradient>
</defs>
</svg>
