<svg xmlns="http://www.w3.org/2000/svg" xmlns:xlink="http://www.w3.org/1999/xlink" viewBox="0 0 1501.42 285.98"><defs><style>.a23a7411-2954-4a8b-b389-4da7d7a950a9{fill:url(#b3e6a599-e431-4452-bffe-59f8051bc32b);}.f0a43eab-7dd0-408a-92d7-30b3bdf9e37a{fill:#fff;}</style><linearGradient id="b3e6a599-e431-4452-bffe-59f8051bc32b" x1="77.76" y1="316.14" x2="373.89" y2="-24.52" gradientUnits="userSpaceOnUse"><stop offset="0.18" stop-color="#fff"/><stop offset="0.24" stop-color="#fcffff"/><stop offset="0.28" stop-color="#f4ffff"/><stop offset="0.31" stop-color="#e6ffff"/><stop offset="0.33" stop-color="#d1ffff"/><stop offset="0.36" stop-color="#b6ffff"/><stop offset="0.38" stop-color="#96ffff"/><stop offset="0.41" stop-color="#6fffff"/><stop offset="0.43" stop-color="#42ffff"/><stop offset="0.45" stop-color="#10ffff"/><stop offset="0.45" stop-color="aqua"/><stop offset="0.47" stop-color="#0cc"/><stop offset="0.48" stop-color="#019e9e"/><stop offset="0.49" stop-color="#017979"/><stop offset="0.5" stop-color="#015f5f"/><stop offset="0.51" stop-color="#015050"/><stop offset="0.52" stop-color="#014a4a"/><stop offset="0.53" stop-color="#017272"/><stop offset="0.55" stop-color="#01a4a4"/><stop offset="0.57" stop-color="#00cbcb"/><stop offset="0.58" stop-color="#00e8e8"/><stop offset="0.6" stop-color="#00f9f9"/><stop offset="0.61" stop-color="aqua"/><stop offset="0.63" stop-color="#27ffff"/><stop offset="0.65" stop-color="#59ffff"/><stop offset="0.68" stop-color="#86ffff"/><stop offset="0.71" stop-color="#abffff"/><stop offset="0.74" stop-color="#caffff"/><stop offset="0.78" stop-color="#e1ffff"/><stop offset="0.81" stop-color="#f2ffff"/><stop offset="0.85" stop-color="#fcffff"/><stop offset="0.9" stop-color="#fff"/></linearGradient></defs><g id="a59860ab-9155-43b0-9caa-1705fe508c77" data-name="Layer 2"><g id="b6479755-4afb-41c5-a8a0-32e5934d8d87" data-name="Layer 1"><path class="a23a7411-2954-4a8b-b389-4da7d7a950a9" d="M488.36,185a56.45,56.45,0,0,0-20.88-20.52,62.86,62.86,0,0,0-29.12-8.07v-2.43a66.18,66.18,0,0,0,25.24-10.49,53.67,53.67,0,0,0,16.81-18.88,52.38,52.38,0,0,0,6-25q0-18.94-9.9-32.9t-29.25-21.6q-19.35-7.65-47.75-7.64h-265A42.73,42.73,0,0,1,106,26.52L76.45,0H0V248.55H332.54a43.17,43.17,0,0,1,27.58,10l33,27.46h15.59q27.06,0,46.6-9.11t30.16-25q10.62-15.91,10.62-36.29Q496.12,198,488.36,185ZM67.48,52.91H100.3A43.12,43.12,0,0,1,129,63.84l17.49,15.58a43.19,43.19,0,0,0,28.7,10.92H387.87q12.61,0,20.87,6.13T417,114.13a21.42,21.42,0,0,1-3.83,12.92,23.91,23.91,0,0,1-10.62,8.07,40.77,40.77,0,0,1-15.65,2.79H249.4a43.16,43.16,0,0,1-27.62-10l-11.13-9.28a43.13,43.13,0,0,0-27.62-10H67.48ZM365.11,232.09a43.13,43.13,0,0,1-27.57-10l-21.07-17.51a43.18,43.18,0,0,0-27.57-10H67.48V150.39H214.12a43.16,43.16,0,0,1,27.6,10l11.17,9.3a43.16,43.16,0,0,0,27.6,10H391.75a44.68,44.68,0,0,1,17.66,3.15A25.18,25.18,0,0,1,420.76,192a26.4,26.4,0,0,1,4,14.81q0,12.5-8.49,18.87t-25.49,6.37"/><path class="f0a43eab-7dd0-408a-92d7-30b3bdf9e37a" d="M609.93,231.79V45.54h78.75q19.25,0,33,6.5a47.34,47.34,0,0,1,21,18.62q7.25,12.14,7.25,29.38a44.34,44.34,0,0,1-6.75,23.37q-6.75,11.13-22.25,18.63V123q14.75,5.74,22.75,13.75a43.19,43.19,0,0,1,11,17.37,64,64,0,0,1,3,19.63q0,27.5-18.25,42.75t-50.75,15.25Zm38.75-116.25h42.75q9,0,14.37-5.13t5.38-13.62q0-8.51-5.38-13.63T691.43,78H648.68Zm0,82.5h44.5q11.75,0,18.75-6.75t7-17.5q0-11-7-17.75t-18.75-6.75h-44.5Z"/><path class="f0a43eab-7dd0-408a-92d7-30b3bdf9e37a" d="M847.43,234.79a74.52,74.52,0,0,1-36.88-9.25,71,71,0,0,1-26.5-25.38q-9.88-16.12-9.87-36.62,0-20.74,9.87-36.75a71.31,71.31,0,0,1,26.5-25.25,77.89,77.89,0,0,1,73.63,0,71.7,71.7,0,0,1,26.37,25.25q9.87,16,9.88,36.75,0,20.51-9.88,36.62a71.42,71.42,0,0,1-26.37,25.38A73.82,73.82,0,0,1,847.43,234.79Zm0-33.75a32.06,32.06,0,0,0,29.87-18,42.11,42.11,0,0,0,4.38-19.5,41.38,41.38,0,0,0-4.38-19.38,34.24,34.24,0,0,0-12-13.25A32.46,32.46,0,0,0,847.43,126a33.05,33.05,0,0,0-18,4.87,33.8,33.8,0,0,0-12.13,13.25,41.26,41.26,0,0,0-4.37,19.38A42,42,0,0,0,817.3,183a32.68,32.68,0,0,0,12.13,13.25A33.69,33.69,0,0,0,847.43,201Z"/><path class="f0a43eab-7dd0-408a-92d7-30b3bdf9e37a" d="M991.42,234.79q-16.5,0-28.12-7.13a45.42,45.42,0,0,1-17.63-19.87q-6-12.75-6-29.75V95.29h37.5V175a28.46,28.46,0,0,0,3.13,13.62,22.29,22.29,0,0,0,8.87,9.13,27.89,27.89,0,0,0,26.13,0,22.58,22.58,0,0,0,8.75-9.13,28.57,28.57,0,0,0,3.12-13.62V95.29h37.5v136.5h-35v-27l2,6q-4.76,12.26-15.37,18.12T991.42,234.79Z"/><path class="f0a43eab-7dd0-408a-92d7-30b3bdf9e37a" d="M1092.17,231.79V95.29h35v27l-2-6q4.75-12.26,15.38-18.13t24.87-5.87q15.49,0,27.13,6.5a46.16,46.16,0,0,1,18.12,18.12q6.49,11.63,6.5,27.13v87.75h-37.5V152a28.44,28.44,0,0,0-3.12-13.75,22.81,22.81,0,0,0-8.75-9,27.89,27.89,0,0,0-26.13,0,22.52,22.52,0,0,0-8.87,9,28.33,28.33,0,0,0-3.13,13.75v79.75Z"/><path class="f0a43eab-7dd0-408a-92d7-30b3bdf9e37a" d="M1295.42,234.79q-22.5,0-39.12-10.63a53.13,53.13,0,0,1-22.63-28.62l27.5-13a43.06,43.06,0,0,0,14.25,17.25,34.26,34.26,0,0,0,20,6.25q8,0,12.25-3.25a10.71,10.71,0,0,0,4.25-9,8.68,8.68,0,0,0-1.5-5.13,14.16,14.16,0,0,0-4.5-3.87,31.61,31.61,0,0,0-7.5-3l-23.25-6.5q-16.76-4.75-25.75-15.38a37.61,37.61,0,0,1-9-25.12,38.45,38.45,0,0,1,6.5-22.25,43.41,43.41,0,0,1,18.25-14.88q11.74-5.37,27-5.37,20,0,35.13,9.37A50.78,50.78,0,0,1,1348.67,128l-27.75,13a26.43,26.43,0,0,0-10.87-13.63,32.1,32.1,0,0,0-17.88-5.12q-7.25,0-11.37,3a9.65,9.65,0,0,0-4.13,8.25,8.83,8.83,0,0,0,1.5,5,12.76,12.76,0,0,0,4.88,4,48.71,48.71,0,0,0,8.37,3.25l21.75,6.5q17,5,26,15.12t9,24.88a38,38,0,0,1-6.62,22.25,44.27,44.27,0,0,1-18.38,14.87Q1311.42,234.78,1295.42,234.79Z"/><path class="f0a43eab-7dd0-408a-92d7-30b3bdf9e37a" d="M1436.42,234.79q-21.75,0-37.75-9.63a66.43,66.43,0,0,1-24.75-25.87,74.73,74.73,0,0,1-8.75-36q0-20.5,9.13-36.5a68.19,68.19,0,0,1,24.62-25.25q15.49-9.26,35-9.25,16.24,0,28.75,5.12a59.14,59.14,0,0,1,21.13,14.38,63.33,63.33,0,0,1,13.12,21.37,75.28,75.28,0,0,1,4.5,26.38q0,4-.37,7.87a27,27,0,0,1-1.38,6.63H1397.42v-27.5h81l-17.75,13q2.5-10.75-.25-19.13a25.53,25.53,0,0,0-9.62-13.25q-6.88-4.87-16.88-4.87a29.1,29.1,0,0,0-16.75,4.75q-7,4.76-10.5,14t-2.75,22.5q-1,11.51,2.75,20.25a29.28,29.28,0,0,0,11.5,13.62q7.75,4.88,18.75,4.88,10,0,17.13-4a28.81,28.81,0,0,0,11.12-11l30,14.25a45.3,45.3,0,0,1-12.62,17.5,62,62,0,0,1-20.38,11.62A77.26,77.26,0,0,1,1436.42,234.79Z"/></g></g></svg>